<svg width="33" height="37" viewBox="0 0 33 37" fill="none" xmlns="http://www.w3.org/2000/svg">
<path d="M16.4798 37L3.00326 33.3013L0 0H33L29.9936 33.2962L16.4798 37Z" fill="#264DE4"/>
<path d="M27.4198 31.1759L29.9889 2.72278H16.5V34.1688L27.4198 31.1759Z" fill="#2965F1"/>
<path d="M6.88492 15.0739L7.25514 19.1581H16.5001V15.0739H6.88492ZM6.14087 6.80725L6.51639 10.8915H16.5001V6.80725H6.14087ZM16.5001 25.6812L16.482 25.6859L11.881 24.4577L11.5869 21.2003H7.43973L8.01847 27.6133L16.4811 29.9357L16.5001 29.9306V25.6812Z" fill="#EBEBEB"/>
<path d="M26.0887 15.0739L26.8345 6.80725H16.4857V10.8915H22.307L21.9311 15.0739H16.4857V19.1581H21.5729L21.0933 24.4552L16.4856 25.6846V29.9338L24.9549 27.6133L25.017 26.9232L25.988 16.1706L26.0887 15.0739Z" fill="white"/>
</svg>
