<svg width="29" height="21" viewBox="0 0 29 21" fill="none" xmlns="http://www.w3.org/2000/svg">
<path d="M0.000171752 17.1433L3.36665 15.0646C4.01623 16.2395 4.60704 17.2336 6.02426 17.2336C7.38271 17.2336 8.23937 16.6915 8.23937 14.5827V0.24125H12.3735V14.6423C12.3735 19.0109 9.86349 20.9995 6.20144 20.9995C2.89424 20.9995 0.974543 19.252 0 17.143L0.000171752 17.1433ZM14.619 16.6913L17.9851 14.7029C18.8714 16.1794 20.0231 17.264 22.0605 17.264C23.7736 17.264 24.8659 16.3901 24.8659 15.1849C24.8659 13.7388 23.7437 13.2265 21.8538 12.3832L20.8204 11.9308C17.8377 10.6357 15.8592 9.00867 15.8592 5.57401C15.8592 2.4104 18.2216 0 21.913 0C24.5413 0 26.4312 0.934143 27.7895 3.37452L24.5705 5.48371C23.8616 4.18822 23.0941 3.67609 21.9129 3.67609C20.702 3.67609 19.9342 4.45945 19.9342 5.48371C19.9342 6.74905 20.702 7.26153 22.4738 8.04489L23.5073 8.49671C27.0215 10.0335 29 11.6 29 15.1248C29 18.9213 26.0765 21 22.149 21C18.3101 21 15.8295 19.1321 14.6188 16.6915" fill="#2B2C34"/>
</svg>
