<svg width="40" height="36" viewBox="0 0 40 36" fill="none" xmlns="http://www.w3.org/2000/svg">
<g clip-path="url(#clip0_308_360)">
<path d="M32.888 11.6565C32.4623 11.5089 32.033 11.3722 31.6005 11.2465C31.6731 10.9465 31.74 10.6501 31.7994 10.3589C32.7741 5.57773 32.1369 1.72588 29.9605 0.457674C27.8737 -0.758116 24.4611 0.509621 21.0145 3.54073C20.6749 3.83999 20.3427 4.14788 20.0184 4.4641C19.8013 4.25382 19.5804 4.04763 19.3558 3.84562C15.7436 0.604674 12.123 -0.761274 9.94891 0.510568C7.86406 1.73015 7.24672 5.35115 8.12422 9.88241C8.21152 10.3312 8.31009 10.7776 8.41984 11.2214C7.90734 11.3685 7.41281 11.5251 6.93953 11.6919C2.70453 13.184 0 15.5223 0 17.9477C0 20.4527 2.90344 22.9653 7.31437 24.4888C7.67198 24.6118 8.03256 24.7258 8.39578 24.8306C8.27782 25.3085 8.17309 25.7897 8.08172 26.2735C7.24516 30.7261 7.89844 34.2615 9.97766 35.4734C12.1252 36.7248 15.7295 35.4386 19.2391 32.3384C19.5236 32.0863 19.802 31.8271 20.0737 31.561C20.4249 31.9035 20.7855 32.2359 21.155 32.558C24.5547 35.5141 27.9122 36.7078 29.9894 35.4926C32.1348 34.2375 32.8322 30.4395 31.9269 25.8187C31.8556 25.4567 31.7756 25.0965 31.687 24.7384C31.9402 24.6626 32.1886 24.5846 32.4308 24.5035C37.0164 22.9683 40 20.4862 40 17.9477C40 15.5134 37.2081 13.1594 32.888 11.6565ZM31.8934 22.8645C31.6747 22.9376 31.4503 23.0082 31.2216 23.0769C30.7153 21.4574 30.0322 19.7354 29.1961 17.956C29.9939 16.2192 30.6508 14.5191 31.1428 12.9102C31.552 13.0299 31.9491 13.156 32.3319 13.2891C36.0334 14.5769 38.2912 16.4807 38.2912 17.9477C38.2912 19.5102 35.8528 21.5387 31.8934 22.8645ZM30.2506 26.1541C30.6509 28.1973 30.708 30.0446 30.4428 31.4889C30.2047 32.7866 29.7256 33.6517 29.1331 33.9983C27.8727 34.7357 25.1769 33.7773 22.2695 31.249C21.9258 30.9496 21.5904 30.6405 21.2638 30.3222C22.3909 29.0766 23.5173 27.6285 24.6167 26.0202C26.5505 25.8468 28.3773 25.5633 30.0341 25.1763C30.1139 25.5004 30.1861 25.8265 30.2506 26.1541ZM13.6369 33.8709C12.4053 34.3103 11.4244 34.3229 10.8314 33.9775C9.56969 33.2422 9.04516 30.4034 9.76062 26.5956C9.84567 26.1456 9.94306 25.6981 10.0527 25.2536C11.6911 25.6199 13.5047 25.8833 15.443 26.0422C16.5498 27.6159 17.7087 29.0624 18.8767 30.329C18.6285 30.5717 18.3744 30.8082 18.1147 31.0383C16.5627 32.4091 15.0075 33.3817 13.6369 33.8709ZM7.86719 22.8549C5.91672 22.1812 4.30594 21.3056 3.20188 20.3502C2.20969 19.4917 1.70891 18.6393 1.70891 17.9477C1.70891 16.4758 3.88031 14.5984 7.50203 13.3225C7.94156 13.1677 8.40156 13.0217 8.87891 12.8846C9.37953 14.5299 10.0361 16.2501 10.8284 17.9897C10.0258 19.7549 9.35984 21.5027 8.85437 23.1674C8.52283 23.0714 8.19367 22.9672 7.86719 22.8549ZM9.80125 9.55067C9.04953 5.66852 9.54875 2.74004 10.8052 2.00504C12.1433 1.2222 15.1023 2.33836 18.2212 5.13688C18.4246 5.31979 18.6247 5.5064 18.8214 5.69662C17.6592 6.95773 16.5109 8.39346 15.4139 9.95789C13.5327 10.1341 11.7319 10.417 10.0763 10.7961C9.97425 10.3834 9.88255 9.96821 9.80125 9.55083V9.55067ZM27.0555 13.8561C26.6644 13.1736 26.2589 12.4996 25.8391 11.8346C27.1153 11.9977 28.3381 12.2142 29.4864 12.4788C29.1417 13.5955 28.712 14.7628 28.2063 15.9596C27.8366 15.2508 27.4529 14.5495 27.0555 13.8561ZM20.0192 6.93073C20.8073 7.79362 21.5967 8.75694 22.3731 9.8022C20.7981 9.72703 19.2205 9.72672 17.6455 9.80125C18.4227 8.76562 19.2188 7.80357 20.0192 6.93073ZM12.9378 13.868C12.5454 14.5558 12.1689 15.2527 11.8086 15.9582C11.3111 14.7656 10.8853 13.5929 10.5377 12.4605C11.6789 12.2025 12.8959 11.9916 14.1641 11.8315C13.7396 12.5005 13.3307 13.1794 12.9378 13.8678V13.868ZM14.2005 24.1867C12.8903 24.0389 11.655 23.8389 10.5141 23.5878C10.8672 22.4352 11.3023 21.2376 11.8106 20.0194C12.1723 20.7255 12.5504 21.4228 12.9445 22.1109C13.3498 22.8183 13.7695 23.5111 14.2005 24.1867ZM20.0664 29.0862C19.2564 28.2033 18.4486 27.2264 17.6597 26.1757C18.4256 26.206 19.2064 26.2215 20 26.2215C20.8153 26.2215 21.6213 26.203 22.4145 26.1674C21.6356 27.2369 20.8492 28.2153 20.0664 29.0862ZM28.2223 19.9572C28.757 21.1888 29.2077 22.3801 29.5655 23.513C28.4058 23.7805 27.1536 23.9958 25.8342 24.1558C26.257 23.4785 26.6664 22.7928 27.0622 22.099C27.4646 21.3939 27.8514 20.6798 28.2223 19.9572ZM25.582 21.2363C24.9761 22.2999 24.3361 23.3434 23.6631 24.365C22.444 24.4522 21.2222 24.4956 20 24.4949C18.7552 24.4949 17.5444 24.4558 16.3784 24.3794C15.6878 23.3601 15.0357 22.3148 14.4233 21.2458H14.4234C13.8139 20.1824 13.2446 19.096 12.7167 17.9889C13.2433 16.8816 13.8109 15.7946 14.4183 14.7304L14.4181 14.7306C15.0253 13.6661 15.6723 12.6253 16.3577 11.6104C17.5472 11.5195 18.767 11.4721 19.9998 11.4721H20C21.2384 11.4721 22.4598 11.5199 23.6491 11.6115C24.3275 12.6249 24.9704 13.6621 25.5764 14.7213C26.1858 15.7831 26.7609 16.8648 27.3008 17.9644C26.7665 19.0753 26.1932 20.1666 25.582 21.2363ZM29.107 1.95357C30.4464 2.7342 30.9673 5.88215 30.1258 10.0103C30.072 10.2737 30.0117 10.5419 29.9461 10.814C28.2864 10.4268 26.4844 10.139 24.5977 9.9601C23.4986 8.37846 22.3597 6.94052 21.2164 5.69567C21.516 5.40381 21.8228 5.11951 22.1364 4.84304C25.0895 2.24615 27.8495 1.22078 29.107 1.95357ZM20 14.3382C21.9727 14.3382 23.5719 15.9543 23.5719 17.9477C23.5719 19.9411 21.9727 21.5572 20 21.5572C18.0273 21.5572 16.4281 19.9411 16.4281 17.9477C16.4281 15.9543 18.0273 14.3382 20 14.3382Z" fill="#00D8FF"/>
</g>
<defs>
<clipPath id="clip0_308_360">
<rect width="40" height="36" fill="white"/>
</clipPath>
</defs>
</svg>
