<svg width="40" height="24" viewBox="0 0 40 24" fill="none" xmlns="http://www.w3.org/2000/svg">
<g clip-path="url(#clip0_308_294)">
<path d="M20 0C14.6667 0 11.3333 2.65979 10 7.97922C12 5.31943 14.3333 4.32203 17 4.98701C18.5214 5.36634 19.6089 6.46738 20.8127 7.68592C22.7736 9.67122 25.043 11.9688 30 11.9688C35.3333 11.9688 38.6667 9.30904 40 3.98961C38 6.6494 35.6667 7.6468 33 6.98182C31.4786 6.60249 30.3911 5.50145 29.1873 4.28291C27.2264 2.29761 24.957 0 20 0ZM10 11.9688C4.66672 11.9688 1.33328 14.6286 0 19.9481C2 17.2883 4.33328 16.2909 7 16.9558C8.52141 17.3352 9.60891 18.4362 10.8127 19.6548C12.7736 21.6401 15.043 23.9377 20 23.9377C25.3333 23.9377 28.6667 21.2779 30 15.9584C28 18.6182 25.6667 19.6156 23 18.9506C21.4786 18.5713 20.3911 17.4703 19.1873 16.2517C17.2264 14.2664 14.957 11.9688 10 11.9688Z" fill="url(#paint0_linear_308_294)"/>
</g>
<defs>
<linearGradient id="paint0_linear_308_294" x1="-1.1112" y1="7.66005" x2="33.3904" y2="27.6049" gradientUnits="userSpaceOnUse">
<stop stop-color="#2298BD"/>
<stop offset="1" stop-color="#0ED7B5"/>
</linearGradient>
<clipPath id="clip0_308_294">
<rect width="40" height="24" fill="white"/>
</clipPath>
</defs>
</svg>
